<svg width="12" height="8" viewBox="0 0 12 8" fill="none" xmlns="http://www.w3.org/2000/svg">
<path fill-rule="evenodd" clip-rule="evenodd" d="M5.97182 2.51142C5.83278 2.60412 5.67056 2.88221 5.53151 3.06761C5.39247 3.253 5.20707 3.39204 5.32294 3.62379C5.46198 3.90188 5.8096 4.6898 5.97182 4.89837C6.13404 4.71298 6.48165 3.92505 6.6207 3.62379C6.73657 3.36887 6.528 3.20665 6.38896 3.02126C6.27308 2.88221 6.11087 2.60412 5.97182 2.51142ZM8.56734 5.82534L9.51748 3.8787L8.54417 4.11045L8.56734 5.82534ZM3.469 5.80217V4.08727L2.49568 3.8787L3.469 5.80217ZM6.01817 0.078125C6.36578 0.935573 6.89879 2.07111 7.64036 2.90539C8.19655 3.53109 7.94163 3.36887 7.52449 4.29584C7.31593 4.75933 7.01466 5.4082 7.06101 5.96439C7.75624 5.89486 7.91846 4.52758 8.01115 3.92505C8.08068 3.55426 8.12703 3.46157 8.47464 3.3457C9.72605 2.95173 9.6797 3.29935 10.8848 2.09429C11.047 1.93207 11.0933 1.88572 11.2092 1.97841C11.3483 2.21016 10.8152 2.99808 10.6762 3.29935C10.0041 4.6898 9.21622 6.01074 8.98448 7.56341H3.16774C2.93599 6.05708 2.1249 4.66663 1.47602 3.32252C1.38332 3.1603 0.525868 1.8162 1.05888 1.95524L2.0322 2.81269C2.88965 3.46157 3.93249 2.95173 4.09471 3.85553C4.21058 4.48123 4.32645 5.87169 5.04485 5.94121C5.0912 5.38503 4.78994 4.75933 4.58137 4.29584C4.4655 4.04092 4.34962 3.83236 4.23375 3.62379C4.00201 3.253 4.23375 3.11395 4.41914 2.90539C5.11437 2.11746 5.64738 0.842876 6.01817 0.078125Z" fill="#D3AF4A"/>
</svg>
